<?xml version="1.0" standalone="no"?>
<!DOCTYPE svg PUBLIC "-//W3C//DTD SVG 20010904//EN"
 "http://www.w3.org/TR/2001/REC-SVG-20010904/DTD/svg10.dtd">
<svg version="1.0" xmlns="http://www.w3.org/2000/svg"
 width="700.000000pt" height="700.000000pt" viewBox="0 0 700.000000 700.000000"
 preserveAspectRatio="xMidYMid meet">
<metadata>
Created by potrace 1.11, written by Peter Selinger 2001-2013
</metadata>
<g transform="translate(0.000000,700.000000) scale(0.100000,-0.100000)"
fill="#000000" stroke="none">
<path d="M0 3501 l0 -3501 3495 2622 c1923 1441 3492 2624 3488 2628 -6 6
-820 212 -923 235 -8 2 -116 29 -240 60 -124 31 -232 58 -240 60 -8 2 -224 56
-480 120 -256 64 -472 118 -480 120 -8 2 -260 65 -560 140 -300 75 -552 138
-560 140 -29 6 -3465 866 -3482 871 -17 5 -18 -166 -18 -3495z"/>
<path d="M5515 3860 c-209 -160 -400 -306 -425 -325 -25 -19 -146 -112 -270
-206 -124 -94 -236 -180 -250 -190 -141 -108 -680 -519 -934 -711 -77 -59
-170 -130 -206 -157 -107 -82 -563 -430 -590 -451 -14 -10 -117 -89 -230 -175
-113 -86 -216 -165 -230 -175 -14 -10 -68 -51 -120 -91 -52 -40 -167 -127
-255 -194 -88 -67 -185 -141 -215 -164 -30 -23 -89 -68 -130 -99 -41 -31 -82
-62 -90 -69 -8 -7 -33 -26 -55 -42 -22 -17 -44 -34 -50 -39 -5 -4 -39 -29 -73
-55 -35 -26 -61 -47 -58 -47 15 0 5656 2826 5654 2832 -4 11 -1068 648 -1081
648 -7 -1 -183 -131 -392 -290z"/>
<path d="M3507 1428 c-1308 -655 -2376 -1192 -2374 -1194 2 -3 39 5 80 16 42
12 84 23 94 25 23 4 189 48 278 73 39 11 72 19 75 20 3 0 25 5 50 12 25 7 52
13 60 15 8 2 85 21 170 43 305 80 919 239 1335 347 160 41 358 92 440 114 140
36 296 77 722 187 95 24 241 62 325 84 84 22 259 67 388 101 129 33 287 74
350 91 63 16 123 31 132 33 9 2 50 13 90 24 40 11 163 43 273 71 110 28 252
65 315 82 346 90 466 121 567 146 62 15 113 30 113 34 0 12 -1077 868 -1091
867 -8 -1 -1084 -537 -2392 -1191z"/>
</g>
</svg>
